<svg width="18" height="26" viewBox="0 0 18 26" fill="none" xmlns="http://www.w3.org/2000/svg">
<path fill-rule="evenodd" clip-rule="evenodd" d="M17.9602 7.09994C17.6239 7.01945 17.2945 6.9273 17.023 6.85346C16.3964 6.68307 15.7023 6.49562 15.0964 6.26097C13.7338 5.73356 12.4098 5.17843 11.1458 4.42513C10.4089 3.98601 9.67487 3.51848 8.98569 3C8.48211 3.37665 7.96456 3.71776 7.42987 4.04995C5.20057 5.43418 2.5573 6.54042 0.000460409 7.08518C-0.000325439 7.84659 -0.00378374 8.61204 0.0320509 9.37183C0.0711862 10.1999 0.165487 11.0191 0.275506 11.8399C0.732712 15.2478 1.89152 18.8432 3.96553 21.5681C4.09441 21.7373 4.23476 21.8976 4.36647 22.0648L4.7495 22.5068C5.35916 23.129 5.91585 23.6908 6.57188 24.2649L7.59442 25.0695C7.6631 25.1216 7.73917 25.1686 7.81053 25.2186L8.62797 25.772C8.7471 25.8462 8.86529 25.9257 8.98553 26C9.02859 25.9734 9.07166 25.9471 9.11457 25.9215L12.1985 23.5553C13.0672 22.7194 13.8829 21.7673 14.5723 20.7696L15.2332 19.6794L16.108 17.8223C16.5603 16.7026 16.9163 15.6022 17.2014 14.4239C17.457 13.3676 17.6168 12.3553 17.766 11.2794C17.8225 10.8713 17.8565 10.4473 17.8892 10.0364C17.9208 9.63994 17.9583 9.21378 17.9577 8.81652C17.9571 8.49975 18.0006 8.18901 18 7.8789C17.9995 7.6186 17.9698 7.3617 17.9602 7.09994Z" fill="#FFCE00"/>
<path fill-rule="evenodd" clip-rule="evenodd" d="M13.6438 9.06396L8.01761 14.8897L5.97441 12.7803L4.33984 14.468L6.38305 16.5609L8.01761 18.2486L9.63614 16.5609L15.2784 10.7518L13.6438 9.06396Z" fill="#383838"/>
</svg>
