<svg width="36" height="36" viewBox="0 0 36 36" fill="none" xmlns="http://www.w3.org/2000/svg">
<g clip-path="url(#clip0_337_8062)">
<path d="M17.782 35.5641C27.6028 35.5641 35.5641 27.6028 35.5641 17.782C35.5641 7.96129 27.6028 0 17.782 0C7.96129 0 0 7.96129 0 17.782C0 27.6028 7.96129 35.5641 17.782 35.5641Z" fill="#3CAF41"/>
<path d="M8.93294 27.4632C8.72469 27.4632 8.52158 27.3807 8.37103 27.2285C8.17266 27.0278 8.096 26.7366 8.17068 26.4639L9.336 22.2081C8.60219 20.8258 8.21612 19.2744 8.21652 17.7009C8.21849 12.4074 12.5261 8.10059 17.8184 8.10059C20.3861 8.10138 22.7986 9.10152 24.6108 10.9165C26.4233 12.731 27.4207 15.1435 27.4199 17.7088C27.4179 23.0031 23.1107 27.3103 17.818 27.3103C16.3204 27.3099 14.8382 26.9578 13.5085 26.2896L9.13328 27.4372C9.06729 27.4549 8.99972 27.4632 8.93294 27.4632ZM13.6041 24.6572C13.7353 24.6572 13.8657 24.69 13.9826 24.7537C15.1527 25.3918 16.4777 25.7293 17.8153 25.7297C22.2398 25.7297 25.8377 22.1314 25.8397 17.708C25.8405 15.5647 25.0071 13.5494 23.4929 12.0336C21.9786 10.5174 19.9633 9.682 17.8184 9.68121C13.3974 9.68121 9.79951 13.2791 9.79754 17.7021C9.79714 19.1108 10.1674 20.4978 10.868 21.7117C10.9735 21.8947 11.0012 22.112 10.9459 22.3155L10.0572 25.561L13.4041 24.6829C13.4693 24.6659 13.5369 24.6572 13.6041 24.6572Z" fill="white"/>
<path d="M14.3738 17.8792C14.2612 17.729 13.4551 16.6589 13.4551 15.5513C13.4551 14.4437 14.0364 13.8992 14.2426 13.6739C14.4489 13.4487 14.6927 13.3926 14.8429 13.3926C14.993 13.3926 15.1432 13.3942 15.2744 13.4005C15.4127 13.4076 15.598 13.3479 15.7806 13.7869C15.9683 14.2374 16.418 15.3454 16.4745 15.4581C16.531 15.5707 16.5681 15.7019 16.4934 15.8524C16.4184 16.0026 16.3808 16.0962 16.2686 16.2278C16.156 16.3594 16.0323 16.5214 15.9307 16.6222C15.8181 16.7344 15.7008 16.8561 15.8319 17.0814C15.9631 17.3066 16.4148 18.0436 17.0838 18.6406C17.9433 19.4076 18.6684 19.6451 18.8936 19.7578C19.1185 19.8704 19.25 19.8518 19.3812 19.7012C19.5124 19.5511 19.9439 19.0441 20.0941 18.8189C20.2443 18.5936 20.394 18.6312 20.6003 18.7062C20.8066 18.7813 21.913 19.3259 22.1378 19.4385C22.3627 19.5511 22.5129 19.6076 22.5694 19.7012C22.6259 19.7953 22.6259 20.2458 22.4382 20.7713C22.2505 21.2969 21.3515 21.777 20.9192 21.8414C20.5315 21.8995 20.0408 21.9236 19.5018 21.7521C19.175 21.6486 18.7557 21.5099 18.2187 21.2779C15.9608 20.3027 14.4868 18.0293 14.3738 17.8792Z" fill="white"/>
</g>
<defs>
<clipPath id="clip0_337_8062">
<rect width="36" height="36" fill="white"/>
</clipPath>
</defs>
</svg>
