<svg width="40" height="41" viewBox="0 0 40 41" fill="none" xmlns="http://www.w3.org/2000/svg">
<g clip-path="url(#clip0_337_9478)">
<path fill-rule="evenodd" clip-rule="evenodd" d="M38.7396 3.7903C38.6695 3.7241 38.5852 3.67465 38.4932 3.64565C38.4012 3.61666 38.3038 3.60887 38.2084 3.62287C32.0651 4.57633 25.7784 3.50671 20.296 0.575296C20.2053 0.525886 20.1036 0.5 20.0002 0.5C19.8969 0.5 19.7952 0.525886 19.7044 0.575296C14.2222 3.50679 7.93544 4.57642 1.79221 3.62287C1.69677 3.60899 1.59942 3.61684 1.50744 3.64583C1.41545 3.67482 1.3312 3.7242 1.26096 3.7903C1.19136 3.85732 1.13833 3.93962 1.10606 4.03069C1.07378 4.12176 1.06316 4.2191 1.07502 4.31498C2.17354 13.3403 4.28776 20.9423 7.35815 26.9201C10.4509 32.9426 14.5996 37.4804 19.6883 40.4162C19.7831 40.4711 19.8907 40.5 20.0003 40.5C20.1098 40.5 20.2175 40.4711 20.3123 40.4162C25.4021 37.4804 29.5498 32.9426 32.6424 26.9201C35.7128 20.9423 37.8271 13.3403 38.9256 4.31498C38.9377 4.21909 38.9272 4.12168 38.895 4.03056C38.8627 3.93944 38.8095 3.85716 38.7397 3.7903H38.7396ZM20.2671 4.05819C24.7581 6.17149 29.681 7.20565 34.6428 7.07811C34.7351 7.07645 34.8265 7.09509 34.9107 7.13272C34.9949 7.17035 35.0698 7.22604 35.1301 7.29584C35.1906 7.36432 35.2351 7.44544 35.2603 7.53329C35.2855 7.62114 35.2908 7.71351 35.2757 7.80366C34.2705 13.999 32.7139 19.4076 30.6515 23.8784C28.0605 29.4878 24.5955 33.8081 20.353 36.7048C20.2483 36.774 20.1257 36.8108 20.0003 36.8108C19.8748 36.8108 19.7522 36.774 19.6475 36.7048C15.4049 33.808 11.9399 29.4879 9.34955 23.8784C7.28612 19.4076 5.72994 13.9991 4.72455 7.80366C4.70951 7.7135 4.71478 7.62113 4.73999 7.53327C4.76519 7.44542 4.8097 7.3643 4.87026 7.29584C4.93067 7.22601 5.00569 7.17031 5.09001 7.13268C5.17434 7.09505 5.2659 7.07642 5.35822 7.07811C10.3197 7.20565 15.2424 6.1716 19.7332 4.0585C19.8169 4.0199 19.9079 3.99991 20 3.99991C20.0921 3.99991 20.1832 4.0199 20.2668 4.0585L20.2671 4.05819ZM20.0008 35.4264C12.9881 30.4476 8.30807 21.3387 6.08104 8.33928C10.8853 8.35137 15.6349 7.31913 20.0008 5.31405C24.3663 7.31919 29.1155 8.35143 33.9195 8.33928C31.693 21.3387 27.0117 30.4476 20.0008 35.4264Z" fill="#252525"/>
</g>
<defs>
<clipPath id="clip0_337_9478">
<rect width="40" height="40" fill="white" transform="translate(0 0.5)"/>
</clipPath>
</defs>
</svg>
