<svg width="50" height="50" viewBox="0 0 50 50" fill="none" xmlns="http://www.w3.org/2000/svg">
<path d="M25.1309 19.3215C26.662 19.3215 28.0473 19.686 29.2868 20.4151C29.4326 19.3215 30.2346 18.082 32.7136 16.4051C37.4527 13.3428 38.7651 3.0625 25.7142 3.0625C10.1114 3.0625 15.7984 14.1449 19.8084 21.2901C21.1937 20.0506 23.0894 19.3215 25.1309 19.3215Z" fill="white"/>
<path d="M16.6722 27.8515C15.6515 28.289 14.1933 28.2161 11.4956 26.8308C6.46481 24.3518 -3.08644 28.289 3.47549 39.5901C11.2769 53.0785 17.9846 42.7252 22.2134 35.58C19.0054 34.4864 16.7452 31.4241 16.6722 27.8515Z" fill="white"/>
<path d="M33.4411 26.3936C33.514 26.831 33.5869 27.2685 33.5869 27.7789C33.5869 30.8411 31.9099 33.5388 29.5039 35.0699C30.3788 35.7261 31.035 37.0385 31.1808 40.0278C31.5454 45.6419 39.7113 51.9851 46.2733 40.6111C54.0747 27.1227 41.6799 26.4665 33.4411 26.3936Z" fill="white"/>
<path d="M25.1296 34.268C28.7134 34.268 31.6186 31.3628 31.6186 27.779C31.6186 24.1953 28.7134 21.29 25.1296 21.29C21.5458 21.29 18.6406 24.1953 18.6406 27.779C18.6406 31.3628 21.5458 34.268 25.1296 34.268Z" fill="white"/>
</svg>
