<svg width="46" height="45" viewBox="0 0 46 45" fill="none" xmlns="http://www.w3.org/2000/svg">
<g clip-path="url(#clip0_337_9460)">
<path d="M38.9062 33.5796V43.2486C42.7017 42.2299 45.498 40.685 45.498 38.4081C45.498 36.3653 43.2503 34.752 38.9062 33.5796Z" fill="#252525"/>
<path d="M33.5469 0C32.0967 0 30.9102 1.18652 30.9102 2.63672V5.44922H15.0898V2.63672C15.0898 1.18652 13.9033 0 12.4531 0C11.0029 0 9.81641 1.18652 9.81641 2.63672V43.7695L9.92181 43.8663C14.3253 44.6835 19.414 45 23 45C26.6124 45 31.754 44.6835 36.1836 43.8399V2.63672C36.1836 1.18652 34.9971 0 33.5469 0ZM15.0898 8.08594H30.9177L30.9304 10.7227H15.0898V8.08594ZM15.0898 13.3594H30.9256L30.9208 15.9961H15.0898V13.3594ZM15.0898 18.6328H31.0035L31.0162 21.2695H15.0898V18.6328ZM15.0898 23.9062H31.0114L31.0063 26.543H15.0898V23.9062ZM15.0898 34.4531H31.0973L31.0921 37.0898H15.0898V34.4531ZM23 42.3633C20.0399 42.3633 17.4093 42.2095 15.0898 41.9661V39.7266H31.0873L31.098 41.9475C28.7345 42.2026 26.0387 42.3633 23 42.3633ZM15.0898 31.8164V29.1797H31.0894L31.1021 31.8164H15.0898Z" fill="#252525"/>
<path d="M0.5 38.4083C0.5 40.6852 3.29636 42.2302 7.0918 43.2485V33.5781C2.7467 34.7513 0.5 36.3649 0.5 38.4083Z" fill="#252525"/>
</g>
<defs>
<clipPath id="clip0_337_9460">
<rect width="45" height="45" fill="white" transform="translate(0.5)"/>
</clipPath>
</defs>
</svg>
