<svg width="50" height="50" viewBox="0 0 50 50" fill="none" xmlns="http://www.w3.org/2000/svg">
<path d="M44.3275 12.1644L41.1932 15.2987C41.044 15.448 40.7455 15.5226 40.4469 15.5226L36.1932 14.4032C35.8947 14.3286 35.7455 14.1047 35.6708 13.8808L34.5514 9.62709C34.4768 9.40321 34.5514 9.1047 34.7753 8.88082L37.9096 5.74649C38.1335 5.52261 38.3574 5.44799 38.6559 5.52261L42.9096 6.64202C43.0589 6.71664 43.2828 6.94052 43.3574 7.16441L44.4768 11.4181C44.5514 11.7166 44.4768 12.0152 44.3275 12.1644Z" fill="white"/>
<path d="M48.582 11.7165C48.5074 11.418 48.3581 11.1942 48.0596 11.1195C47.7611 11.0449 47.5373 11.1195 47.3134 11.3434L41.9402 16.7165L32.8358 17.0897L33.2089 8.05982L38.582 2.68669C38.8059 2.46281 38.8805 2.23893 38.8059 1.94042C38.8059 1.64191 38.582 1.49266 38.2835 1.41803C33.7313 0.447883 29.2537 1.79117 25.9701 5.07475C21.9402 9.1046 21.0447 15.0001 23.2089 19.9255L2.53725 40.5225C0.596957 42.3882 0.596957 45.5225 2.53725 47.4628C4.40293 49.3285 7.53725 49.4031 9.47755 47.4628L30.1492 26.7912C31.791 27.5374 33.6567 27.9106 35.5223 27.9106C39.1044 27.9106 42.4626 26.4927 44.9999 23.9553C48.2089 20.7464 49.5522 16.1195 48.582 11.7165ZM22.3134 28.8061L8.43278 42.6121C8.13427 42.9106 7.68651 42.9106 7.388 42.6121C7.08949 42.3136 7.08949 41.8658 7.388 41.5673L21.2686 27.6867C21.5671 27.3882 22.0149 27.3882 22.3134 27.6867C22.6119 27.9852 22.6119 28.5076 22.3134 28.8061Z" fill="white"/>
</svg>
