<svg width="40" height="40" viewBox="0 0 40 40" fill="none" xmlns="http://www.w3.org/2000/svg">
<path fill-rule="evenodd" clip-rule="evenodd" d="M38.7396 3.2903C38.6695 3.2241 38.5852 3.17465 38.4932 3.14565C38.4012 3.11666 38.3038 3.10887 38.2084 3.12287C32.0651 4.07633 25.7784 3.00671 20.296 0.0752963C20.2053 0.0258865 20.1036 0 20.0002 0C19.8969 0 19.7952 0.0258865 19.7044 0.0752963C14.2222 3.00679 7.93544 4.07642 1.79221 3.12287C1.69677 3.10899 1.59942 3.11684 1.50744 3.14583C1.41545 3.17482 1.3312 3.2242 1.26096 3.2903C1.19136 3.35732 1.13833 3.43962 1.10606 3.53069C1.07378 3.62176 1.06316 3.7191 1.07502 3.81498C2.17354 12.8403 4.28776 20.4423 7.35815 26.4201C10.4509 32.4426 14.5996 36.9804 19.6883 39.9162C19.7831 39.9711 19.8907 40 20.0003 40C20.1098 40 20.2175 39.9711 20.3123 39.9162C25.4021 36.9804 29.5498 32.4426 32.6424 26.4201C35.7128 20.4423 37.8271 12.8403 38.9256 3.81498C38.9377 3.71909 38.9272 3.62168 38.895 3.53056C38.8627 3.43944 38.8095 3.35716 38.7397 3.2903H38.7396ZM20.2671 3.55819C24.7581 5.67149 29.681 6.70565 34.6428 6.57811C34.7351 6.57645 34.8265 6.59509 34.9107 6.63272C34.9949 6.67035 35.0698 6.72604 35.1301 6.79584C35.1906 6.86432 35.2351 6.94544 35.2603 7.03329C35.2855 7.12114 35.2908 7.21351 35.2757 7.30366C34.2705 13.499 32.7139 18.9076 30.6515 23.3784C28.0605 28.9878 24.5955 33.3081 20.353 36.2048C20.2483 36.274 20.1257 36.3108 20.0003 36.3108C19.8748 36.3108 19.7522 36.274 19.6475 36.2048C15.4049 33.308 11.9399 28.9879 9.34955 23.3784C7.28612 18.9076 5.72994 13.4991 4.72455 7.30366C4.70951 7.2135 4.71478 7.12113 4.73999 7.03327C4.76519 6.94542 4.8097 6.8643 4.87026 6.79584C4.93067 6.72601 5.00569 6.67031 5.09001 6.63268C5.17434 6.59505 5.2659 6.57642 5.35822 6.57811C10.3197 6.70565 15.2424 5.6716 19.7332 3.5585C19.8169 3.5199 19.9079 3.49991 20 3.49991C20.0921 3.49991 20.1832 3.5199 20.2668 3.5585L20.2671 3.55819ZM20.0008 34.9264C12.9881 29.9476 8.30807 20.8387 6.08104 7.83928C10.8853 7.85137 15.6349 6.81913 20.0008 4.81405C24.3663 6.81919 29.1155 7.85143 33.9195 7.83928C31.693 20.8387 27.0117 29.9476 20.0008 34.9264Z" fill="white"/>
</svg>
