<svg width="40" height="41" viewBox="0 0 40 41" fill="none" xmlns="http://www.w3.org/2000/svg">
<path d="M36.25 38C35.9302 38 35.6104 37.8779 35.3662 37.6338L2.86621 5.13379C2.37793 4.64551 2.37793 3.85449 2.86621 3.36621C3.35449 2.87793 4.14551 2.87793 4.63379 3.36621L37.1338 35.8662C37.6221 36.3545 37.6221 37.1455 37.1338 37.6338C36.8896 37.8779 36.5698 38 36.25 38Z" fill="#252525"/>
<path d="M33.1953 30.1602C35.6884 29.3388 37.5 27.0181 37.5 24.25C37.5 22.6567 36.8853 21.2188 35.9039 20.1149C36.9005 18.8416 37.5 17.2423 37.5 15.5C37.5 11.3578 34.1421 8 30 8C29.0209 8 28.0883 8.19318 27.2308 8.53444C26.3661 5.34741 23.4608 3 20 3C16.9799 3 14.3836 4.78902 13.1949 7.36157C12.0617 6.21381 10.4903 5.5 8.74997 5.5C8.68314 5.5 8.62119 5.51762 8.55481 5.51968L33.1953 30.1602ZM29.375 19.25C31.7871 19.25 33.75 17.2871 33.75 14.875C33.75 14.5295 34.0295 14.25 34.375 14.25C34.7204 14.25 35 14.5295 35 14.875C35 17.9768 32.4768 20.5 29.375 20.5C29.0295 20.5 28.75 20.2205 28.75 19.875C28.75 19.5295 29.0295 19.25 29.375 19.25ZM19.375 5.5C22.4768 5.5 25 8.02319 25 11.125C25 11.4705 24.7204 11.75 24.375 11.75C24.0295 11.75 23.75 11.4705 23.75 11.125C23.75 8.71289 21.7871 6.75 19.375 6.75C19.0295 6.75 18.75 6.47046 18.75 6.125C18.75 5.77954 19.0295 5.5 19.375 5.5Z" fill="#252525"/>
<path d="M27.2874 31.3228C26.6441 33.7206 24.4732 35.5002 21.875 35.5002C21.5295 35.5002 21.25 35.2206 21.25 34.8752C21.25 34.5297 21.5295 34.2502 21.875 34.2502C24.1595 34.2502 26.0197 32.4832 26.2123 30.2477L3.86261 7.89795C3.02231 8.96225 2.5 10.2888 2.5 11.7502C2.5 13.6408 3.35724 15.3149 4.68384 16.461C3.33458 17.8172 2.5 19.686 2.5 21.7502C2.5 24.4777 3.96072 26.8578 6.13777 28.1705C5.42549 29.1856 5 30.416 5 31.7502C5 35.202 7.79823 38.0002 11.25 38.0002C13.4894 38.0002 15.4385 36.8127 16.5421 35.0428C17.9124 36.8372 20.0677 38.0002 22.5 38.0002C25.5996 38.0002 28.2591 36.1195 29.402 33.4373L27.2874 31.3228ZM6.25 22.3752C6.25 22.7206 5.97046 23.0002 5.625 23.0002C5.27954 23.0002 5 22.7206 5 22.3752C5 19.2734 7.52319 16.7502 10.625 16.7502C10.9705 16.7502 11.25 17.0297 11.25 17.3752C11.25 17.7206 10.9705 18.0002 10.625 18.0002C8.21289 18.0002 6.25 19.9631 6.25 22.3752ZM13.125 28.0002C10.7129 28.0002 8.75 29.9631 8.75 32.3752C8.75 32.7206 8.47046 33.0002 8.125 33.0002C7.77954 33.0002 7.5 32.7206 7.5 32.3752C7.5 29.2734 10.0232 26.7502 13.125 26.7502C13.4705 26.7502 13.75 27.0297 13.75 27.3752C13.75 27.7206 13.4705 28.0002 13.125 28.0002Z" fill="#252525"/>
</svg>
