<svg width="40" height="40" viewBox="0 0 40 40" fill="none" xmlns="http://www.w3.org/2000/svg">
<g clip-path="url(#clip0_337_9696)">
<path d="M34.7773 7.125C34.7773 6.5697 34.5568 6.03715 34.1641 5.64449C33.7714 5.25184 33.2389 5.03125 32.6836 5.03125C32.1283 5.03125 31.5957 5.25184 31.2031 5.64449C30.8104 6.03715 30.5898 6.5697 30.5898 7.125C30.5898 7.6803 30.8104 8.21285 31.2031 8.6055C31.5957 8.99816 32.1283 9.21875 32.6836 9.21875C33.2389 9.21875 33.7714 8.99816 34.1641 8.6055C34.5568 8.21285 34.7773 7.6803 34.7773 7.125Z" fill="white"/>
<path d="M32.612 13.6293C34.3463 13.6351 36.0123 12.9543 37.2461 11.7355C38.4799 10.5167 39.181 8.8591 39.1964 7.12492C39.2048 6.26477 39.0427 5.41148 38.7194 4.61437C38.396 3.81726 37.9179 3.09214 37.3126 2.48092C36.7074 1.8697 35.987 1.3845 35.1931 1.05337C34.3992 0.722248 33.5475 0.551758 32.6873 0.551758C31.8271 0.551758 30.9755 0.722248 30.1816 1.05337C29.3877 1.3845 28.6673 1.8697 28.062 2.48092C27.4568 3.09214 26.9786 3.81726 26.6553 4.61437C26.332 5.41148 26.1698 6.26477 26.1783 7.12492C26.1773 7.73076 26.2615 8.33373 26.4283 8.91617L8.52827 27.9474C6.90506 25.584 6.10999 22.7497 6.26715 19.8869C6.42431 17.0241 7.52486 14.2939 9.39702 12.1224L10.372 14.4037C10.4221 14.529 10.5127 14.6341 10.6293 14.702C10.746 14.77 10.882 14.7969 11.0158 14.7787C11.15 14.7645 11.2759 14.7067 11.3741 14.6141C11.4723 14.5215 11.5374 14.3993 11.5595 14.2662L12.897 6.52242C12.9134 6.42292 12.9055 6.32093 12.8739 6.22516C12.8424 6.12938 12.7881 6.04267 12.7158 5.97242C12.6432 5.90199 12.5549 5.84994 12.4581 5.82058C12.3614 5.79123 12.259 5.78543 12.1595 5.80367L4.57827 7.30367C4.44735 7.32958 4.32815 7.39673 4.23814 7.49528C4.14814 7.59383 4.09204 7.71861 4.07807 7.85134C4.0641 7.98408 4.09298 8.1178 4.1605 8.23293C4.22801 8.34806 4.33061 8.43856 4.45327 8.49117L6.49702 9.34742C-2.76548 16.2849 2.00952 36.2537 2.22827 37.1287C2.2545 37.2349 2.30812 37.3323 2.3838 37.4113C2.45948 37.4902 2.55455 37.548 2.65952 37.5787C8.10765 39.2662 25.4195 42.063 30.7033 33.0537L32.397 34.9474C32.4807 35.0419 32.5912 35.1088 32.7137 35.139C32.8363 35.1692 32.9652 35.1614 33.0832 35.1167C33.2012 35.0719 33.3028 34.9923 33.3745 34.8883C33.4462 34.7844 33.4846 34.6612 33.4845 34.5349L33.5658 27.0912C33.5684 26.9935 33.5477 26.8965 33.5053 26.8085C33.4629 26.7204 33.4001 26.6438 33.322 26.5849C33.2457 26.5266 33.1569 26.4867 33.0626 26.4683C32.9683 26.4498 32.871 26.4534 32.7783 26.4787L25.672 28.4537C25.5447 28.4885 25.4317 28.5627 25.3491 28.6657C25.2666 28.7687 25.2187 28.8951 25.2125 29.027C25.2063 29.1588 25.2419 29.2893 25.3144 29.3996C25.3868 29.5099 25.4923 29.5945 25.6158 29.6412L27.6595 30.4349C25.4878 32.2957 22.7627 33.3877 19.907 33.5414C17.0512 33.6951 14.2246 32.9019 11.8658 31.2849L30.897 13.3849C31.4553 13.5423 32.032 13.6245 32.612 13.6293ZM29.3433 7.12492C29.3433 6.46389 29.5393 5.8177 29.9065 5.26805C30.2737 4.71841 30.7957 4.28999 31.4064 4.03697C32.017 3.78395 32.6891 3.71768 33.3374 3.84655C33.9857 3.97542 34.5813 4.29364 35.0488 4.76097C35.5163 5.2283 35.8348 5.82376 35.9639 6.47206C36.093 7.12036 36.027 7.79239 35.7742 8.40317C35.5214 9.01395 35.0932 9.53607 34.5437 9.9035C33.9942 10.2709 33.348 10.4672 32.687 10.4674C31.8022 10.4615 30.9553 10.1075 30.3296 9.48199C29.7038 8.85645 29.3495 8.0097 29.3433 7.12492Z" fill="white"/>
</g>
<defs>
<clipPath id="clip0_337_9696">
<rect width="40" height="40" fill="white"/>
</clipPath>
</defs>
</svg>
