<svg width="48" height="49" viewBox="0 0 48 49" fill="none" xmlns="http://www.w3.org/2000/svg">
<path fill-rule="evenodd" clip-rule="evenodd" d="M3.09005 13.25C2.72255 13.883 2.46738 14.5925 2.35488 15.3537V15.3605C1.79988 19.1705 1.50746 22.9663 1.49996 26.7485C1.49246 30.5638 1.78487 34.3655 2.34737 38.1538V38.1597C2.79737 41.084 5.31748 43.244 8.27248 43.244C15.7275 43.25 32.2499 43.25 39.7124 43.25C42.6824 43.25 45.2025 41.0817 45.645 38.1485C45.645 38.1462 45.645 38.144 45.645 38.1417C46.2075 34.3392 46.5 30.5427 46.5 26.75C46.5 22.9475 46.2075 19.1488 45.645 15.3545C45.645 15.353 45.645 15.3507 45.645 15.3492C45.525 14.5902 45.2699 13.8822 44.9099 13.25H30.93L29.8425 15.4205C29.5875 15.929 29.07 16.25 28.5 16.25H19.5C18.93 16.25 18.4124 15.929 18.1574 15.4205L17.07 13.25H3.09005ZM22.5 31.379L20.5574 29.4395C19.9724 28.8537 19.0275 28.8537 18.4425 29.4395C17.85 30.0245 17.85 30.9755 18.4425 31.5605L22.9425 36.0605C23.5275 36.6463 24.4724 36.6463 25.0574 36.0605L29.5574 31.5605C30.1499 30.9755 30.1499 30.0245 29.5574 29.4395C28.9724 28.8537 28.0275 28.8537 27.4425 29.4395L25.5 31.379V21.5C25.5 20.672 24.825 20 24 20C23.175 20 22.5 20.672 22.5 21.5V31.379ZM6.10488 10.25H18C18.57 10.25 19.0875 10.571 19.3425 11.0795L20.43 13.25H27.57L28.6574 11.0795C28.9124 10.571 29.43 10.25 30 10.25H41.895L37.8975 6.88325C37.0275 6.15125 35.9249 5.75 34.7849 5.75H13.215C12.075 5.75 10.9724 6.15125 10.1024 6.88325L6.10488 10.25Z" fill="#252525"/>
</svg>
