<svg width="46" height="45" viewBox="0 0 46 45" fill="none" xmlns="http://www.w3.org/2000/svg">
<g clip-path="url(#clip0_338_6588)">
<path d="M10.9471 22.4998C10.9427 27.2553 13.7372 31.5681 18.0796 33.5069C22.4219 35.4458 27.4985 34.6478 31.0364 31.47V18.1999C27.9429 16.7379 25.6864 13.9431 24.9092 10.611C24.2783 10.5064 23.6402 10.4513 23.0007 10.4463C16.3468 10.4538 10.9547 15.8459 10.9471 22.4998Z" fill="#252525"/>
<path d="M3.2329 26.7717C3.36631 26.8605 3.47038 26.9869 3.53181 27.1349L5.95855 32.9929C6.02025 33.141 6.03599 33.3042 6.00355 33.4614L5.40968 36.3695C5.37118 36.5601 5.43165 36.7573 5.57043 36.8934L8.6168 39.9374C8.75066 40.0693 8.94112 40.1265 9.12542 40.0901L12.0424 39.493C12.1996 39.4604 12.3629 39.4761 12.5109 39.538L18.3689 41.9657C18.5168 42.027 18.6429 42.1311 18.7312 42.2646L20.3705 44.7396C20.4726 44.9 20.6488 44.9979 20.8389 44.9999H25.1622C25.3496 44.9992 25.5244 44.9052 25.6283 44.7492L27.2723 42.2677C27.3607 42.1342 27.4869 42.0302 27.6347 41.9688L31.0363 40.5578V33.5329C26.2522 37.0179 19.7678 37.0242 14.977 33.5487C10.1862 30.0731 8.17963 23.907 10.0076 18.2776C11.8355 12.6482 17.0819 8.83721 23.0006 8.83923C23.5511 8.84266 24.101 8.87922 24.6471 8.94848C24.6231 8.64631 24.6078 8.34256 24.6078 8.03565C24.6116 5.76931 25.2992 3.55684 26.5806 1.68741L25.6332 0.257167C25.5298 0.0972947 25.3526 0.000527343 25.1623 0H20.839C20.6516 0.000703124 20.4768 0.0947459 20.3729 0.250751L18.7289 2.73216C18.6405 2.86567 18.5143 2.96973 18.3665 3.03108L12.5085 5.45861C12.3605 5.52058 12.1971 5.53631 12.04 5.50361L9.13114 4.90815C8.94068 4.87168 8.74451 4.93188 8.60722 5.06891L5.56331 8.11607C5.43086 8.24957 5.37382 8.44047 5.41144 8.62469L6.00769 11.5408C6.04012 11.698 6.02438 11.8612 5.96269 12.0093L3.53577 17.8673C3.47433 18.0153 3.37027 18.1417 3.23685 18.2306L0.761855 19.8698C0.601191 19.9718 0.50293 20.148 0.500732 20.3383V24.6615C0.501348 24.8494 0.595742 25.0245 0.752275 25.1284L3.2329 26.7717Z" fill="#252525"/>
<path d="M41.4956 1.98885L41.4828 9.14622C41.4853 9.75575 41.1405 10.3136 40.594 10.5839L36.5762 12.5928C36.1237 12.819 35.5911 12.819 35.1386 12.5928L31.1207 10.5839C30.5764 10.3115 30.2327 9.75496 30.2328 9.14622V1.98077C30.2338 1.65328 30.0358 1.35797 29.7326 1.23431C29.4293 1.11065 29.0813 1.18342 28.8531 1.41827C26.6784 3.71678 25.7708 6.93648 26.4248 10.0324C27.0787 13.1284 29.2108 15.706 32.1293 16.9288C32.4366 17.0516 32.6396 17.3476 32.6435 17.6785V41.6434C32.6149 43.3317 33.8614 44.771 35.5364 44.9839C36.4402 45.0748 37.3403 44.7788 38.014 44.1695C38.6877 43.5601 39.0721 42.6941 39.072 41.7857V17.6786C39.076 17.3477 39.279 17.0517 39.5863 16.9289C42.5019 15.7059 44.6328 13.1312 45.2891 10.0383C45.9454 6.94544 45.0438 3.72724 42.8761 1.42556C42.6478 1.19001 42.2993 1.11689 41.9955 1.24081C41.6919 1.36474 41.494 1.66084 41.4956 1.98885ZM36.6613 41.7857C36.6613 42.2295 36.3015 42.5893 35.8577 42.5893C35.4139 42.5893 35.0541 42.2296 35.0541 41.7857V39.375C35.0541 38.9312 35.4139 38.5714 35.8577 38.5714C36.3015 38.5714 36.6613 38.9311 36.6613 39.375V41.7857Z" fill="#252525"/>
</g>
<defs>
<clipPath id="clip0_338_6588">
<rect width="45" height="45" fill="white" transform="translate(0.5)"/>
</clipPath>
</defs>
</svg>
