<svg width="50" height="50" viewBox="0 0 50 50" fill="none" xmlns="http://www.w3.org/2000/svg">
<path d="M43.4727 8.90625C43.4727 8.21213 43.1969 7.54644 42.7061 7.05562C42.2153 6.5648 41.5496 6.28906 40.8555 6.28906C40.1613 6.28906 39.4957 6.5648 39.0048 7.05562C38.514 7.54644 38.2383 8.21213 38.2383 8.90625C38.2383 9.60037 38.514 10.2661 39.0048 10.7569C39.4957 11.2477 40.1613 11.5234 40.8555 11.5234C41.5496 11.5234 42.2153 11.2477 42.7061 10.7569C43.1969 10.2661 43.4727 9.60037 43.4727 8.90625Z" fill="white"/>
<path d="M40.765 17.0364C42.9328 17.0437 45.0154 16.1926 46.5576 14.6691C48.0998 13.1456 48.9763 11.0736 48.9955 8.9059C49.006 7.83071 48.8034 6.7641 48.3992 5.76771C47.995 4.77133 47.3974 3.86492 46.6408 3.1009C45.8842 2.33688 44.9837 1.73038 43.9914 1.31647C42.999 0.902566 41.9344 0.689453 40.8592 0.689453C39.7839 0.689453 38.7194 0.902566 37.727 1.31647C36.7346 1.73038 35.8341 2.33688 35.0775 3.1009C34.3209 3.86492 33.7233 4.77133 33.3191 5.76771C32.915 6.7641 32.7123 7.83071 32.7228 8.9059C32.7217 9.66321 32.8268 10.4169 33.0353 11.145L10.6603 34.934C8.63133 31.9798 7.63748 28.4369 7.83393 24.8584C8.03038 21.2799 9.40607 17.8671 11.7463 15.1528L12.965 18.0043C13.0276 18.1611 13.1408 18.2923 13.2867 18.3773C13.4325 18.4622 13.6025 18.4959 13.7697 18.4731C13.9375 18.4554 14.0948 18.3831 14.2176 18.2674C14.3404 18.1517 14.4218 17.9989 14.4494 17.8325L16.1213 8.15278C16.1418 8.0284 16.1319 7.90092 16.0924 7.7812C16.053 7.66149 15.9851 7.55309 15.8947 7.46528C15.804 7.37725 15.6936 7.31217 15.5726 7.27548C15.4517 7.23879 15.3237 7.23154 15.1994 7.25434L5.72284 9.12934C5.55918 9.16173 5.41019 9.24567 5.29768 9.36886C5.18517 9.49205 5.11505 9.64802 5.09759 9.81393C5.08012 9.97985 5.11623 10.147 5.20062 10.2909C5.28502 10.4348 5.41326 10.548 5.56659 10.6137L8.12128 11.684C-3.45685 20.3559 2.5119 45.3168 2.78534 46.4106C2.81812 46.5433 2.88516 46.6651 2.97975 46.7638C3.07435 46.8625 3.19319 46.9347 3.3244 46.9731C10.1346 49.0825 31.7744 52.5786 38.3791 41.3168L40.4963 43.684C40.6009 43.8022 40.739 43.8857 40.8922 43.9235C41.0454 43.9613 41.2065 43.9515 41.354 43.8956C41.5015 43.8396 41.6286 43.7401 41.7182 43.6102C41.8078 43.4803 41.8557 43.3262 41.8557 43.1684L41.9572 33.8637C41.9605 33.7416 41.9346 33.6204 41.8816 33.5104C41.8286 33.4003 41.7501 33.3045 41.6525 33.2309C41.5571 33.158 41.4461 33.1081 41.3282 33.0851C41.2103 33.062 41.0887 33.0665 40.9728 33.0981L32.09 35.5668C31.9309 35.6103 31.7896 35.7031 31.6864 35.8318C31.5832 35.9606 31.5234 36.1187 31.5156 36.2835C31.5078 36.4483 31.5524 36.6113 31.6429 36.7492C31.7335 36.8872 31.8654 36.9929 32.0197 37.0512L34.5744 38.0434C31.8598 40.3694 28.4534 41.7344 24.8837 41.9265C21.314 42.1186 17.7808 41.1271 14.8322 39.1059L38.6213 16.7309C39.3191 16.9276 40.04 17.0303 40.765 17.0364ZM36.6791 8.9059C36.6791 8.07961 36.9241 7.27188 37.3831 6.58482C37.8422 5.89777 38.4946 5.36224 39.258 5.04597C40.0213 4.72969 40.8613 4.64686 41.6718 4.80794C42.4822 4.96903 43.2267 5.3668 43.811 5.95097C44.3954 6.53513 44.7935 7.27946 44.9549 8.08983C45.1163 8.90021 45.0337 9.74024 44.7177 10.5037C44.4018 11.2672 43.8665 11.9198 43.1796 12.3791C42.4927 12.8384 41.6851 13.0837 40.8588 13.084C39.7528 13.0767 38.6942 12.6342 37.912 11.8522C37.1298 11.0703 36.6869 10.0119 36.6791 8.9059Z" fill="white"/>
</svg>
