<svg width="50" height="50" viewBox="0 0 50 50" fill="none" xmlns="http://www.w3.org/2000/svg">
<path d="M4.45972 0.893027V4.46504C4.45972 4.95819 4.85949 5.35807 5.35274 5.35807C5.84599 5.35807 6.24577 4.95829 6.24577 4.46514V0.893027C6.24577 0.399875 5.84599 0 5.35274 0C4.85949 0 4.45972 0.399875 4.45972 0.893027Z" fill="#252525"/>
<path d="M13.3896 0.893027V4.46504C13.3896 4.95819 13.7894 5.35807 14.2827 5.35807C14.7758 5.35807 15.1757 4.95829 15.1757 4.46504V0.893027C15.1757 0.399875 14.7759 0 14.2827 0C13.7894 0 13.3896 0.399875 13.3896 0.893027Z" fill="#252525"/>
<path d="M-0.00561523 8.92994H46.4311V6.25086C46.4311 4.7713 45.2317 3.57178 43.752 3.57178V4.4648C43.752 5.94436 42.5526 7.14389 41.073 7.14389C39.5933 7.14389 38.3939 5.94446 38.3939 4.4648V3.57178H34.8219V4.4648C34.8219 5.94436 33.6224 7.14389 32.1428 7.14389C30.6632 7.14389 29.4637 5.94446 29.4637 4.4648V3.57178H25.8917V4.4648C25.8917 5.94436 24.6923 7.14389 23.2126 7.14389C21.733 7.14389 20.5335 5.94446 20.5335 4.4648V3.57178H16.9615V4.4648C16.9615 5.94436 15.7621 7.14389 14.2824 7.14389C12.8029 7.14389 11.6033 5.94446 11.6033 4.4648V3.57178H8.03153V4.4648C8.03153 5.94436 6.8321 7.14389 5.35245 7.14389C3.8728 7.14389 2.67337 5.94446 2.67337 4.4648V3.57178C1.19381 3.57188 -0.00561523 4.7713 -0.00561523 6.25086L-0.00561523 8.92994Z" fill="#252525"/>
<path d="M22.3196 0.893027V4.46504C22.3196 4.95819 22.7194 5.35807 23.2126 5.35807C23.7059 5.35807 24.1056 4.95829 24.1056 4.46504V0.893027C24.1056 0.399875 23.7059 0 23.2126 0C22.7194 0 22.3196 0.399875 22.3196 0.893027Z" fill="#252525"/>
<path d="M33.0356 33.9346C33.5289 33.9346 33.9287 33.5347 33.9287 33.0415C33.9287 32.5483 33.5289 32.1484 33.0356 32.1484C32.5424 32.1484 32.1426 32.5483 32.1426 33.0415C32.1426 33.5347 32.5424 33.9346 33.0356 33.9346Z" fill="#252525"/>
<path d="M41.9662 4.46514V0.893027C41.9662 0.399875 41.5665 0 41.0732 0C40.58 0 40.1802 0.399777 40.1802 0.893027V4.46504C40.1802 4.95819 40.58 5.35807 41.0732 5.35807C41.5665 5.35807 41.9662 4.95829 41.9662 4.46514Z" fill="#252525"/>
<path d="M31.25 0.893027V4.46504C31.25 4.95819 31.6498 5.35807 32.143 5.35807C32.6362 5.35807 33.0361 4.95829 33.0361 4.46504V0.893027C33.0361 0.399875 32.6363 0 32.143 0C31.6498 0 31.25 0.399875 31.25 0.893027Z" fill="#252525"/>
<path d="M33.0359 16.0745C32.5428 16.0745 32.1429 15.6747 32.1429 15.1814C32.1429 14.6882 32.5427 14.2884 33.0359 14.2884C38.081 14.2878 42.9121 16.3269 46.4311 19.942V10.7163H-0.00560955V43.7578C-0.00707465 44.4688 0.274713 45.151 0.777535 45.6538C1.28026 46.1565 1.96251 46.4383 2.67347 46.4369H19.9363C16.324 42.9172 14.2855 38.0883 14.2828 33.0447C14.2801 28.0012 16.3136 23.17 19.9221 19.6465H19.6408C19.1476 19.6465 18.7478 19.2467 18.7478 18.7535C18.7478 18.2603 19.1475 17.8604 19.6408 17.8604H22.3199C22.813 17.8604 23.2129 18.2602 23.2129 18.7535V21.4325C23.2129 21.9257 22.8131 22.3256 22.3199 22.3256C21.8267 22.3256 21.4268 21.9258 21.4268 21.4325V20.6753C15.4931 26.2509 14.3583 35.2562 18.7234 42.1296C23.0886 49.003 31.7217 51.8049 39.2912 48.8051C46.8607 45.8053 51.2307 37.85 49.7023 29.8524C48.1739 21.8548 41.1782 16.0716 33.0359 16.0745ZM17.8546 33.0417C17.8546 32.5485 18.2544 32.1487 18.7477 32.1487H20.5337C21.0269 32.1487 21.4267 32.5484 21.4267 33.0417C21.4267 33.5348 21.027 33.9347 20.5337 33.9347H18.7477C18.2545 33.9347 17.8546 33.5348 17.8546 33.0417ZM22.6546 40.0662L21.1088 40.9592C20.8324 41.1212 20.4903 41.1228 20.2124 40.9632C19.9345 40.8036 19.7635 40.5074 19.7642 40.1869C19.7648 39.8664 19.9372 39.571 20.2158 39.4125L21.7616 38.5195C22.038 38.3575 22.3801 38.3559 22.658 38.5155C22.9359 38.6751 23.1069 38.9713 23.1062 39.2918C23.1056 39.6123 22.9332 39.9077 22.6546 40.0662ZM22.9823 27.2371C22.8639 27.4424 22.6687 27.5922 22.4397 27.6535C22.2108 27.7149 21.9668 27.6827 21.7616 27.5639L20.2158 26.6709C19.9372 26.5124 19.7648 26.217 19.7642 25.8965C19.7635 25.576 19.9345 25.2798 20.2124 25.1202C20.4903 24.9606 20.8323 24.9621 21.1088 25.1242L22.6546 26.0172C22.8598 26.1355 23.0097 26.3305 23.0712 26.5592C23.1326 26.788 23.1007 27.0319 22.9823 27.2371ZM43.4172 26.0172L44.963 25.1242C45.2394 24.9622 45.5816 24.9606 45.8594 25.1202C46.1373 25.2798 46.3083 25.576 46.3077 25.8965C46.307 26.217 46.1346 26.5124 45.856 26.6709L44.3102 27.5639C44.0338 27.7259 43.6917 27.7275 43.4138 27.5679C43.1359 27.4083 42.9649 27.112 42.9656 26.7916C42.9663 26.4711 43.1385 26.1757 43.4172 26.0172ZM32.1429 18.7535C32.1429 18.2603 32.5427 17.8604 33.0359 17.8604C33.5291 17.8604 33.9289 18.2602 33.9289 18.7535V20.5395C33.9289 21.0327 33.5292 21.4325 33.0359 21.4325C32.5428 21.4325 32.1429 21.0328 32.1429 20.5395V18.7535ZM27.5581 44.3151L26.6651 45.8617C26.5066 46.1403 26.2112 46.3127 25.8907 46.3134C25.5702 46.314 25.274 46.143 25.1144 45.8651C24.9548 45.5872 24.9563 45.2452 25.1184 44.9687L26.0114 43.422C26.1699 43.1435 26.4653 42.9711 26.7858 42.9704C27.1063 42.9697 27.4025 43.1407 27.5621 43.4186C27.7217 43.6965 27.7202 44.0386 27.5581 44.3151ZM27.2313 22.9882C26.8042 23.2348 26.2581 23.0884 26.0114 22.6614L25.1184 21.1147C24.9564 20.8383 24.9548 20.4961 25.1144 20.2183C25.274 19.9404 25.5702 19.7694 25.8907 19.77C26.2112 19.7707 26.5066 19.9431 26.6651 20.2217L27.5581 21.7683C27.8047 22.1954 27.6584 22.7416 27.2313 22.9882ZM33.9289 47.3299C33.9289 47.8231 33.5292 48.223 33.0359 48.223C32.5428 48.223 32.1429 47.8232 32.1429 47.3299V45.5439C32.1429 45.0507 32.5427 44.6509 33.0359 44.6509C33.5291 44.6509 33.9289 45.0506 33.9289 45.5439V47.3299ZM33.0359 35.7208C31.7327 35.7232 30.6175 34.7854 30.3967 33.5009C30.1758 32.2164 30.9136 30.96 32.1429 30.527V24.1116C32.1429 23.6185 32.5427 23.2186 33.0359 23.2186C33.5291 23.2186 33.9289 23.6184 33.9289 24.1116V30.527C34.6852 30.7972 35.2804 31.3924 35.5506 32.1487H39.287C39.7802 32.1487 40.18 32.5484 40.18 33.0417C40.18 33.5348 39.7802 33.9347 39.287 33.9347H35.5506C35.1735 35.0013 34.1672 35.7161 33.0359 35.7208ZM40.6265 46.1895C40.4213 46.3079 40.1775 46.3398 39.9486 46.2783C39.7199 46.2169 39.5248 46.067 39.4066 45.8617L38.5136 44.3151C38.3516 44.0386 38.35 43.6965 38.5096 43.4186C38.6692 43.1407 38.9655 42.9697 39.2859 42.9704C39.6064 42.9711 39.9019 43.1435 40.0603 43.422L40.9533 44.9687C41.072 45.1739 41.1042 45.4179 41.043 45.6468C40.9816 45.8759 40.8318 46.0711 40.6265 46.1895ZM40.9533 21.1146L40.0603 22.6613C39.9019 22.9398 39.6064 23.1122 39.2859 23.1129C38.9655 23.1136 38.6692 22.9426 38.5096 22.6647C38.35 22.3868 38.3515 22.0448 38.5136 21.7682L39.4066 20.2216C39.5651 19.943 39.8605 19.7706 40.181 19.7699C40.5015 19.7693 40.7977 19.9403 40.9573 20.2182C41.1169 20.496 41.1154 20.8382 40.9533 21.1146ZM46.1837 40.6323C46.0653 40.8376 45.8701 40.9874 45.6411 41.0488C45.4122 41.1101 45.1682 41.0778 44.963 40.9591L43.4172 40.0661C43.1386 39.9076 42.9663 39.6122 42.9656 39.2917C42.9649 38.9712 43.1359 38.675 43.4138 38.5154C43.6917 38.3558 44.0337 38.3573 44.3102 38.5194L45.856 39.4124C46.0612 39.5307 46.2112 39.7257 46.2726 39.9544C46.334 40.1833 46.3021 40.4271 46.1837 40.6323ZM47.3241 33.9347H45.5381C45.0449 33.9347 44.6451 33.5349 44.6451 33.0417C44.6451 32.5485 45.0448 32.1487 45.5381 32.1487H47.3241C47.8173 32.1487 48.2172 32.5484 48.2172 33.0417C48.2171 33.5348 47.8173 33.9347 47.3241 33.9347Z" fill="#252525"/>
</svg>
